{"title":"Mars.Needs.Moms.BRRip.XviD.AC3-SceneLovers","uid":6548041,"size":1839853104,"categoryP":"video","categoryS":"movies","magnet":"?xt=urn:btih:5b4a71dfbbf8a62416849e360792819536426a46&amp;dn=Mars.Needs.Moms.BRRip.XviD.AC3-SceneLovers&amp;tr=udp%3A%2F%2Ftracker.openbittorrent.com%3A80&amp;tr=udp%3A%2F%2Fopen.demonii.com%3A1337&amp;tr=udp%3A%2F%2Ftracker.coppersurfer.tk%3A6969&amp;tr=udp%3A%2F%2Fexodus.desync.com%3A6969","seeders":0,"leechers":1,"uploader":"drogbabr","files":2,"time":1310950780,"description":"General\nFormat                           : AVI\nFormat/Info                      : Audio Video Interleave\nFile size                        : 1.70 GiB\nDuration                         : 1h 28mn\nOverall bit rate                 : 2 761 Kbps\n\nVideo\nID                               : 0\nFormat                           : MPEG-4 Visual\nFormat profile                   : Advanced Simple@L5\nFormat settings, BVOP            : 2\nFormat settings, QPel            : No\nFormat settings, GMC             : No warppoints\nFormat settings, Matrix          : Default (H.263)\nCodec ID                         : XVID\nCodec ID/Hint                    : XviD\nDuration                         : 1h 28mn\nBit rate                         : 2 306 Kbps\nWidth                            : 704 pixels\nHeight                           : 288 pixels\nDisplay aspect ratio             : 2.40:1\nFrame rate                       : 23.976 fps\nColor space                      : YUV\nChroma subsampling               : 4:2:0\nBit depth                        : 8 bits\nScan type                        : Progressive\nCompression mode                 : Lossy\nBits/(Pixel*Frame)               : 0.474\nStream size                      : 1.42 GiB (83%)\nWriting library                  : XviD 1.2.1 (UTC 2008-12-04)\n\nAudio\nID                               : 1\nFormat                           : AC-3\nFormat/Info                      : Audio Coding 3\nMode extension                   : CM (complete main)\nCodec ID                         : 2000\nDuration                         : 1h 28mn\nBit rate mode                    : Constant\nBit rate                         : 448 Kbps\nChannel(s)                       : 2 channels\nChannel positions                : Front: L R\nSampling rate                    : 48.0 KHz\nBit depth                        : 16 bits\nCompression mode                 : Lossy\nStream size                      : 282 MiB (16%)\nAlignment                        : Aligned on interleaves\nInterleave, duration             : 64 ms (1.53 video frames)\nInterleave, preload duration     : 192 ms","torrent":{"xt":"urn:btih:5b4a71dfbbf8a62416849e360792819536426a46","amp;dn":"Mars.Needs.Moms.BRRip.XviD.AC3-SceneLovers","amp;tr":["udp%3A%2F%2Ftracker.openbittorrent.com%3A80","udp%3A%2F%2Fopen.demonii.com%3A1337","udp%3A%2F%2Ftracker.coppersurfer.tk%3A6969","udp%3A%2F%2Fexodus.desync.com%3A6969"],"infoHash":"5b4a71dfbbf8a62416849e360792819536426a46","infoHashBuffer":{"type":"Buffer","data":[91,74,113,223,187,248,166,36,22,132,158,54,7,146,129,149,54,66,106,70]},"announce":[],"urlList":[]}}